solid OpenSCAD_Model
  facet normal -1 0 0
    outer loop
      vertex 0 16 0
      vertex 0 14.5 1.5
      vertex 0 16 18
    endloop
  endfacet
  facet normal -1 0 0
    outer loop
      vertex 0 0 0
      vertex 0 14.5 1.5
      vertex 0 16 0
    endloop
  endfacet
  facet normal -1 -0 0
    outer loop
      vertex 0 14.5 1.5
      vertex 0 0 0
      vertex 0 0 1.5
    endloop
  endfacet
  facet normal -1 -0 0
    outer loop
      vertex 0 16 18
      vertex 0 14.5 1.5
      vertex 0 14.5 18
    endloop
  endfacet
  facet normal 0 0 1
    outer loop
      vertex 10 14.5 1.5
      vertex 0 14.5 1.5
      vertex 10 5 1.5
    endloop
  endfacet
  facet normal -0 0 1
    outer loop
      vertex 10 5 1.5
      vertex 30 0 1.5
      vertex 30 5 1.5
    endloop
  endfacet
  facet normal 0 0 1
    outer loop
      vertex 10 5 1.5
      vertex 0 0 1.5
      vertex 30 0 1.5
    endloop
  endfacet
  facet normal 0 0 1
    outer loop
      vertex 0 0 1.5
      vertex 10 5 1.5
      vertex 0 14.5 1.5
    endloop
  endfacet
  facet normal 1 -0 0
    outer loop
      vertex 30 0 1.5
      vertex 30 5 0
      vertex 30 5 1.5
    endloop
  endfacet
  facet normal 1 0 0
    outer loop
      vertex 30 5 0
      vertex 30 0 1.5
      vertex 30 0 0
    endloop
  endfacet
  facet normal 0 1 -0
    outer loop
      vertex 30 5 0
      vertex 10 5 1.5
      vertex 30 5 1.5
    endloop
  endfacet
  facet normal 0 1 0
    outer loop
      vertex 10 5 1.5
      vertex 30 5 0
      vertex 10 5 0
    endloop
  endfacet
  facet normal 0 0 -1
    outer loop
      vertex 30 0 0
      vertex 10 5 0
      vertex 30 5 0
    endloop
  endfacet
  facet normal 0 0 -1
    outer loop
      vertex 0 0 0
      vertex 10 5 0
      vertex 30 0 0
    endloop
  endfacet
  facet normal 0 0 -1
    outer loop
      vertex 0 16 0
      vertex 10 5 0
      vertex 0 0 0
    endloop
  endfacet
  facet normal 0 0 -1
    outer loop
      vertex 10 5 0
      vertex 0 16 0
      vertex 10 16 0
    endloop
  endfacet
  facet normal 0 -1 0
    outer loop
      vertex 0 0 0
      vertex 30 0 1.5
      vertex 0 0 1.5
    endloop
  endfacet
  facet normal 0 -1 -0
    outer loop
      vertex 30 0 1.5
      vertex 0 0 0
      vertex 30 0 0
    endloop
  endfacet
  facet normal 1 0 0
    outer loop
      vertex 10 14.5 1.5
      vertex 10 16 18
      vertex 10 14.5 18
    endloop
  endfacet
  facet normal 1 0 0
    outer loop
      vertex 10 16 18
      vertex 10 14.5 1.5
      vertex 10 16 0
    endloop
  endfacet
  facet normal 1 0 0
    outer loop
      vertex 10 5 0
      vertex 10 14.5 1.5
      vertex 10 5 1.5
    endloop
  endfacet
  facet normal 1 0 0
    outer loop
      vertex 10 14.5 1.5
      vertex 10 5 0
      vertex 10 16 0
    endloop
  endfacet
  facet normal 0 1 -0
    outer loop
      vertex 10 16 0
      vertex 0 16 18
      vertex 10 16 18
    endloop
  endfacet
  facet normal 0 1 0
    outer loop
      vertex 0 16 18
      vertex 10 16 0
      vertex 0 16 0
    endloop
  endfacet
  facet normal -0 0 1
    outer loop
      vertex 0 16 18
      vertex 10 14.5 18
      vertex 10 16 18
    endloop
  endfacet
  facet normal 0 0 1
    outer loop
      vertex 10 14.5 18
      vertex 0 16 18
      vertex 0 14.5 18
    endloop
  endfacet
  facet normal 0 -1 0
    outer loop
      vertex 0 14.5 1.5
      vertex 10 14.5 18
      vertex 0 14.5 18
    endloop
  endfacet
  facet normal 0 -1 -0
    outer loop
      vertex 10 14.5 18
      vertex 0 14.5 1.5
      vertex 10 14.5 1.5
    endloop
  endfacet
endsolid OpenSCAD_Model
